<svg xmlns="http://www.w3.org/2000/svg" width="1146.667" height="1146.667" version="1.0" viewBox="0 0 860 860"><path d="M544.5.6c-5.5.6-35.6 2.8-91.5 6.9-26.1 1.9-53.6 3.9-61 4.5-22.4 1.7-63.2 4.7-128 9.5-33.8 2.5-73.4 5.4-88 6.5s-48.3 3.5-75 5.5c-54.6 4-59.4 4.5-68.5 8C17.3 47.2 8 57.4 2.8 74L.5 81.5v551l2.8 8.9c3.3 10.7 9.8 23.9 16.9 34.4 11.2 16.7 124 162.1 130.3 168 8.3 7.9 18.2 12.7 29.9 14.7 11.1 1.9 20.3 1.9 50.3 0 13.1-.8 50.1-3.1 82.3-5 55.9-3.3 142.5-8.6 232-14 22.8-1.4 63.8-3.9 91-5.5 116.1-7.1 131.8-8.1 138-9.1 25.8-3.9 40.2-15.2 46.6-36.4 1.8-5.7 1.9-19.5 2.1-312 .3-277.7.2-306.4-1.3-311.4-2.4-8.2-11.4-16.6-39.9-36.8C662 43.7 620.8 15.1 611.3 10.3 596.4 2.8 586.8.8 565.5.5c-9.3-.2-18.8-.1-21 .1M583 51c11.5 2.8 22.5 8.3 35.5 17.6 59.7 43.1 83.7 60.9 85.5 63.1 2.5 3.2 2.6 6 .3 6.7-2.2.6-14.2 1.4-183.8 11.6-198.3 11.9-238.7 14.3-275.5 16.6-49.6 3.1-69.4 3-78.1-.4-3.1-1.2-8.3-3.9-11.7-6-6.6-4-76.6-59.2-79.4-62.6-4.7-5.7-.2-12.6 9.4-14.5 2.9-.5 40.4-3.5 83.3-6.6s86.6-6.3 97-7c49.2-3.7 62.4-4.6 95-7 19.3-1.4 40.6-3 47.5-3.5s34.8-2.5 62-4.5 56.9-4.3 66-5c19.9-1.7 35.8-1.1 47 1.5m168.8 146.6c6.1 2.5 10.1 7.1 12.3 14.4 1.9 6.4 1.9 10.2 1.7 267.5l-.3 261-2.2 5.5c-3.5 8.5-10.2 14.2-19.8 16.9-2.2.6-23.1 2.2-46.5 3.6s-62.3 3.6-86.5 5c-88.3 5.1-112.3 6.5-129 7.5-9.3.5-32.7 1.9-52 3-19.2 1.1-73.9 4.3-121.5 7.1-98.8 5.8-107.9 6.1-116.5 3.5-9.7-2.9-15-7.6-18.7-16.6l-2.3-5.5V511c0-210.6.2-260.4 1.3-264.5 2.5-9.5 7.8-14.8 17.7-17.6 1.6-.5 33.6-2.7 71-4.9s110.8-6.5 163-9.5c52.3-3.1 142.7-8.5 201-11.9 118.8-7.1 122-7.3 127.3-5"/><path d="M652.5 289.6c-11.5.7-36.4 2.2-55.3 3.3-31.7 1.8-34.6 2.2-39.5 4.4-7.3 3.4-11.2 6.9-14.3 13.3-2.5 5.2-3.9 15.3-2.3 16.9.4.3 10 1.6 21.4 3 11.4 1.3 20.9 2.6 21.1 2.8s.3 51.8.2 114.8l-.3 114.3-10.1-15.4c-15.8-24.2-54.7-83.7-108.3-166-27.1-41.5-49.8-76.1-50.5-76.7-.9-1-13.1-.5-60.6 2.7-32.7 2.1-61.5 4.2-64 4.5-11.5 1.4-19.5 6.4-24.2 15.1-3 5.7-4.9 14.7-4.1 19.7l.5 3.4 15.2 1.2c8.3.7 17.7 1.4 20.9 1.8l5.7.6v329.2l-16.2 4.5c-18.6 5.1-22.4 7.5-25.2 15.7-1.7 4.9-2.1 12-.8 13.9.5.7 19.9-.1 64.4-2.7 71.1-4.1 72-4.3 81.7-11.9 5.4-4.3 10.2-12.6 10.4-18.2.2-2.9-.1-3.3-3.3-4-1.9-.4-12.5-2.8-23.5-5.3s-21-4.7-22.2-5l-2.3-.5V544.8c0-77.6.4-123.8.9-123.3.6.6 5 7.3 9.9 15s41.2 64.8 80.7 127c70.1 110.4 80.7 126.1 91.6 135.9 17.7 15.9 46.4 15.2 83.1-2.1l9.8-4.6V324.5l14.7-2.8c16.6-3.2 20.4-4.9 23.4-11 2.4-4.5 3.5-13.6 2.5-19.1-.8-4.2 1.8-4.1-31.1-2"/></svg>